<?xml version="1.0" standalone="no"?>
<!DOCTYPE svg PUBLIC "-//W3C//DTD SVG 20010904//EN"
 "http://www.w3.org/TR/2001/REC-SVG-20010904/DTD/svg10.dtd">
<svg version="1.0" xmlns="http://www.w3.org/2000/svg"
 width="559.000000pt" height="447.000000pt" viewBox="0 0 559.000000 447.000000"
 preserveAspectRatio="xMidYMid meet">

<g transform="translate(0.000000,447.000000) scale(0.100000,-0.100000)"
fill="#000000" stroke="none">
<path d="M1675 2975 c-146 -33 -251 -92 -352 -198 -366 -386 -148 -1028 377
-1111 l75 -12 3 -79 c5 -135 34 -136 67 -2 l20 82 64 13 c205 40 382 173 470
353 54 111 71 183 71 302 0 156 -41 280 -136 406 -146 195 -424 299 -659 246z
m256 -52 c4 -4 -1 -39 -12 -78 -52 -182 -135 -521 -132 -532 7 -21 28 -15 107
32 60 35 76 41 76 28 0 -26 -132 -617 -140 -626 -4 -4 -10 56 -14 135 -12 274
-18 340 -32 345 -6 2 -45 -14 -85 -37 -39 -22 -75 -39 -79 -38 -4 2 13 73 36
158 98 351 136 501 130 516 -9 23 -64 12 -153 -31 -242 -118 -337 -467 -201
-742 58 -117 192 -226 297 -240 l41 -6 0 -54 c0 -60 11 -56 -100 -32 -174 38
-324 155 -410 320 -71 137 -88 284 -50 433 29 116 73 190 165 282 131 131 277
188 459 179 49 -2 92 -8 97 -12z m-201 -151 c0 -5 -24 -98 -54 -208 -119 -438
-128 -476 -116 -488 10 -10 40 4 162 73 15 9 29 13 31 11 2 -3 7 -72 10 -154
l5 -148 -34 5 c-93 15 -195 99 -253 206 -45 85 -61 150 -61 251 0 152 43 262
140 360 65 66 170 122 170 92z m308 -75 c63 -59 97 -113 128 -203 60 -177 23
-382 -94 -514 -36 -41 -147 -118 -156 -109 -2 2 22 127 55 278 32 151 59 283
59 293 0 28 -25 22 -101 -23 -38 -23 -72 -39 -76 -35 -5 4 67 288 92 364 6 18
35 1 93 -51z m175 2 c59 -65 119 -175 136 -249 16 -69 13 -209 -5 -271 -33
-109 -99 -215 -174 -275 -19 -16 -30 -22 -24 -14 6 8 27 36 47 62 47 63 92
184 107 286 24 162 -24 344 -124 475 -51 67 -28 58 37 -14z"/>
<path d="M2802 2659 c-53 -27 -97 -79 -119 -144 -25 -71 -24 -241 1 -313 42
-123 156 -191 275 -162 68 16 121 64 157 142 27 58 29 72 29 178 0 124 -14
172 -72 248 -53 70 -182 95 -271 51z m152 -172 c18 -25 21 -42 21 -132 0 -96
-2 -105 -24 -129 -29 -31 -64 -33 -90 -7 -26 26 -34 73 -30 170 4 68 8 83 29
106 31 33 66 30 94 -8z"/>
<path d="M3390 2360 l0 -310 200 0 200 0 0 70 0 70 -115 0 -115 0 0 240 0 240
-85 0 -85 0 0 -310z"/>
<path d="M3985 2614 c14 -31 49 -115 80 -188 l55 -133 0 -121 0 -122 80 0 80
0 0 119 c0 115 1 122 36 203 20 45 54 126 76 178 22 52 42 101 45 108 4 10
-13 12 -77 10 l-83 -3 -35 -97 c-19 -54 -37 -98 -41 -98 -3 0 -22 45 -41 100
l-34 100 -83 0 -83 0 25 -56z"/>
</g>
</svg>
